<svg width="50" height="37" viewBox="0 0 50 37" fill="none" xmlns="http://www.w3.org/2000/svg">
<rect width="50" height="37" rx="4" fill="black"/>
<path d="M27.108 21.882L25.11 22.404L31.05 6.654C31.314 5.946 31.614 5.46 31.95 5.196C32.298 4.932 32.778 4.8 33.39 4.8H39.618C40.014 4.8 40.308 4.884 40.5 5.052C40.692 5.208 40.788 5.424 40.788 5.7C40.788 5.952 40.722 6.162 40.59 6.33C40.47 6.486 40.284 6.612 40.032 6.708L39.168 6.942C38.796 7.062 38.544 7.224 38.412 7.428C38.28 7.632 38.226 7.95 38.25 8.382L39.546 26.58C39.57 27 39.648 27.294 39.78 27.462C39.912 27.63 40.14 27.762 40.464 27.858L41.31 28.092C41.55 28.176 41.73 28.296 41.85 28.452C41.97 28.608 42.03 28.806 42.03 29.046C42.03 29.322 41.934 29.55 41.742 29.73C41.55 29.91 41.25 30 40.842 30H31.356C30.948 30 30.648 29.916 30.456 29.748C30.264 29.58 30.168 29.364 30.168 29.1C30.168 28.86 30.222 28.656 30.33 28.488C30.45 28.32 30.654 28.188 30.942 28.092L31.806 27.858C32.178 27.738 32.43 27.588 32.562 27.408C32.694 27.228 32.748 26.952 32.724 26.58L31.302 7.878L33.102 7.68L25.704 27.534C25.452 28.218 25.194 28.656 24.93 28.848C24.678 29.028 24.372 29.118 24.012 29.118C23.748 29.118 23.508 29.088 23.292 29.028C23.088 28.956 22.89 28.806 22.698 28.578C22.506 28.338 22.308 27.96 22.104 27.444L14.49 8.274L16.218 7.77L14.742 25.86C14.694 26.412 14.82 26.844 15.12 27.156C15.42 27.456 15.81 27.714 16.29 27.93L17.01 28.218C17.19 28.302 17.328 28.41 17.424 28.542C17.532 28.674 17.586 28.848 17.586 29.064C17.586 29.34 17.49 29.568 17.298 29.748C17.118 29.916 16.824 30 16.416 30H10.746C10.35 30 10.056 29.916 9.864 29.748C9.672 29.58 9.576 29.364 9.576 29.1C9.576 28.812 9.654 28.596 9.81 28.452C9.966 28.308 10.17 28.176 10.422 28.056L10.998 27.858C11.418 27.69 11.766 27.45 12.042 27.138C12.33 26.826 12.498 26.394 12.546 25.842L13.914 9.12C13.974 8.448 13.932 7.95 13.788 7.626C13.644 7.29 13.38 7.062 12.996 6.942L12.168 6.708C11.892 6.624 11.688 6.504 11.556 6.348C11.424 6.18 11.358 5.97 11.358 5.718C11.358 5.106 11.754 4.8 12.546 4.8H18.756C19.32 4.8 19.77 4.92 20.106 5.16C20.454 5.388 20.766 5.862 21.042 6.582L27.108 21.882Z" fill="white"/>
</svg>
