<svg width="134" height="32" viewBox="0 0 134 32" fill="none" xmlns="http://www.w3.org/2000/svg">
<path d="M44.768 21.552C44.768 21.312 44.8907 21.1493 45.136 21.064L45.52 20.96C45.6587 20.912 45.76 20.8507 45.824 20.776C45.888 20.696 45.92 20.5947 45.92 20.472V12.328C45.92 12.2053 45.888 12.1067 45.824 12.032C45.76 11.952 45.6587 11.888 45.52 11.84L45.136 11.736C44.8907 11.6453 44.768 11.4827 44.768 11.248C44.768 11.104 44.8133 10.9947 44.904 10.92C45 10.84 45.144 10.8 45.336 10.8H49.936C50.9227 10.8 51.8187 10.9467 52.624 11.24C53.4293 11.528 54.1227 11.9387 54.704 12.472C55.2853 13.0053 55.7333 13.6373 56.048 14.368C56.3627 15.0987 56.52 15.9067 56.52 16.792C56.52 17.7947 56.2827 18.6907 55.808 19.48C55.3387 20.264 54.6667 20.88 53.792 21.328C52.9227 21.776 51.888 22 50.688 22H45.336C45.144 22 45 21.96 44.904 21.88C44.8133 21.8 44.768 21.6907 44.768 21.552ZM50.344 21.048C50.9307 21.048 51.448 20.896 51.896 20.592C52.344 20.288 52.696 19.8187 52.952 19.184C53.208 18.544 53.336 17.7307 53.336 16.744C53.336 15.96 53.2507 15.2613 53.08 14.648C52.9093 14.0347 52.6613 13.512 52.336 13.08C52.0107 12.648 51.616 12.32 51.152 12.096C50.6933 11.8667 50.1733 11.752 49.592 11.752H49.008V20.248C49.008 20.5253 49.0827 20.728 49.232 20.856C49.3813 20.984 49.6 21.048 49.888 21.048H50.344ZM65.2869 17.224C65.2869 17.544 65.1962 17.792 65.0149 17.968C64.8389 18.144 64.5829 18.232 64.2469 18.232H59.3749V17.52H62.0789C62.3562 17.52 62.4949 17.392 62.4949 17.136C62.4949 16.4373 62.3909 15.9253 62.1829 15.6C61.9802 15.2693 61.7082 15.104 61.3669 15.104C61.1055 15.104 60.8735 15.1893 60.6709 15.36C60.4735 15.5307 60.3162 15.784 60.1989 16.12C60.0815 16.4507 60.0229 16.8587 60.0229 17.344C60.0229 18.352 60.2522 19.0987 60.7109 19.584C61.1749 20.064 61.7962 20.304 62.5749 20.304C62.9909 20.304 63.3615 20.2347 63.6869 20.096C64.0122 19.9573 64.2895 19.7387 64.5189 19.44C64.6415 19.3227 64.7349 19.2427 64.7989 19.2C64.8682 19.1573 64.9349 19.136 64.9989 19.136C65.0895 19.136 65.1562 19.1813 65.1989 19.272C65.2469 19.3573 65.2709 19.464 65.2709 19.592C65.2549 20.0613 65.0922 20.496 64.7829 20.896C64.4735 21.2907 64.0495 21.608 63.5109 21.848C62.9722 22.088 62.3482 22.208 61.6389 22.208C60.8495 22.208 60.1429 22.048 59.5189 21.728C58.9002 21.408 58.4122 20.9627 58.0549 20.392C57.6975 19.816 57.5189 19.144 57.5189 18.376C57.5189 17.5387 57.6842 16.8053 58.0149 16.176C58.3509 15.5413 58.8335 15.048 59.4629 14.696C60.0975 14.3387 60.8575 14.16 61.7429 14.16C62.5055 14.16 63.1509 14.2907 63.6789 14.552C64.2069 14.8133 64.6069 15.176 64.8789 15.64C65.1509 16.0987 65.2869 16.6267 65.2869 17.224ZM70.8536 22.032H69.7976C69.6056 22.032 69.4403 21.984 69.3016 21.888C69.163 21.7867 69.0536 21.6347 68.9736 21.432L66.6696 15.768C66.5896 15.5707 66.523 15.44 66.4696 15.376C66.4216 15.3067 66.363 15.2613 66.2936 15.24L66.0776 15.168C65.9763 15.12 65.9016 15.0667 65.8536 15.008C65.811 14.9493 65.7896 14.8693 65.7896 14.768C65.7896 14.6453 65.8323 14.5493 65.9176 14.48C66.0083 14.4053 66.131 14.368 66.2856 14.368H70.2296C70.555 14.368 70.7176 14.5013 70.7176 14.768C70.7176 14.864 70.6883 14.944 70.6296 15.008C70.5763 15.0667 70.4883 15.1147 70.3656 15.152L70.1016 15.216C69.8723 15.2747 69.7336 15.3707 69.6856 15.504C69.6376 15.6373 69.6776 15.8667 69.8056 16.192L71.5256 20.672L70.8936 21.064L72.6936 16.2C72.8163 15.8693 72.851 15.6373 72.7976 15.504C72.7496 15.3653 72.6136 15.2693 72.3896 15.216L72.1336 15.152C72.011 15.1147 71.9203 15.0667 71.8616 15.008C71.803 14.9493 71.7736 14.8693 71.7736 14.768C71.7736 14.64 71.8163 14.5413 71.9016 14.472C71.9923 14.4027 72.1123 14.368 72.2616 14.368H74.3896C74.539 14.368 74.6563 14.4053 74.7416 14.48C74.8323 14.5493 74.8776 14.6453 74.8776 14.768C74.8776 14.8533 74.8563 14.9307 74.8136 15C74.771 15.064 74.6856 15.1147 74.5576 15.152L74.3496 15.208C74.2536 15.24 74.163 15.328 74.0776 15.472C73.9923 15.616 73.883 15.856 73.7496 16.192L71.6856 21.488C71.595 21.7013 71.475 21.8453 71.3256 21.92C71.1816 21.9947 71.0243 22.032 70.8536 22.032ZM83.0213 17.224C83.0213 17.544 82.9306 17.792 82.7493 17.968C82.5733 18.144 82.3173 18.232 81.9813 18.232H77.1093V17.52H79.8133C80.0906 17.52 80.2293 17.392 80.2293 17.136C80.2293 16.4373 80.1253 15.9253 79.9173 15.6C79.7146 15.2693 79.4426 15.104 79.1013 15.104C78.8399 15.104 78.6079 15.1893 78.4053 15.36C78.2079 15.5307 78.0506 15.784 77.9333 16.12C77.8159 16.4507 77.7573 16.8587 77.7573 17.344C77.7573 18.352 77.9866 19.0987 78.4453 19.584C78.9093 20.064 79.5306 20.304 80.3093 20.304C80.7253 20.304 81.0959 20.2347 81.4213 20.096C81.7466 19.9573 82.0239 19.7387 82.2533 19.44C82.3759 19.3227 82.4693 19.2427 82.5333 19.2C82.6026 19.1573 82.6693 19.136 82.7333 19.136C82.8239 19.136 82.8906 19.1813 82.9333 19.272C82.9813 19.3573 83.0052 19.464 83.0052 19.592C82.9893 20.0613 82.8266 20.496 82.5173 20.896C82.2079 21.2907 81.7839 21.608 81.2453 21.848C80.7066 22.088 80.0826 22.208 79.3733 22.208C78.5839 22.208 77.8773 22.048 77.2533 21.728C76.6346 21.408 76.1466 20.9627 75.7893 20.392C75.4319 19.816 75.2533 19.144 75.2533 18.376C75.2533 17.5387 75.4186 16.8053 75.7493 16.176C76.0853 15.5413 76.5679 15.048 77.1973 14.696C77.8319 14.3387 78.5919 14.16 79.4773 14.16C80.2399 14.16 80.8853 14.2907 81.4133 14.552C81.9413 14.8133 82.3413 15.176 82.6133 15.64C82.8853 16.0987 83.0213 16.6267 83.0213 17.224ZM87.66 10.616V20.544C87.66 20.7307 87.6787 20.8667 87.716 20.952C87.7587 21.032 87.8253 21.088 87.916 21.12L88.156 21.2C88.268 21.2427 88.348 21.2987 88.396 21.368C88.444 21.432 88.468 21.5093 88.468 21.6C88.468 21.7227 88.428 21.8213 88.348 21.896C88.268 21.9653 88.1373 22 87.956 22H84.556C84.3747 22 84.244 21.9653 84.164 21.896C84.084 21.8213 84.044 21.7227 84.044 21.6C84.044 21.5093 84.068 21.432 84.116 21.368C84.164 21.2987 84.244 21.2427 84.356 21.2L84.604 21.12C84.6947 21.088 84.7587 21.032 84.796 20.952C84.8333 20.8667 84.852 20.7307 84.852 20.544V12.168C84.852 12.0187 84.8307 11.912 84.788 11.848C84.7453 11.7787 84.6787 11.736 84.588 11.72L84.292 11.672C84.1853 11.6453 84.108 11.6027 84.06 11.544C84.0173 11.4853 83.996 11.4133 83.996 11.328C83.996 11.2213 84.0253 11.136 84.084 11.072C84.1427 11.008 84.2547 10.9467 84.42 10.888L86.084 10.264C86.324 10.1733 86.5133 10.1093 86.652 10.072C86.796 10.0347 86.9213 10.016 87.028 10.016C87.2413 10.016 87.3987 10.072 87.5 10.184C87.6067 10.296 87.66 10.44 87.66 10.616ZM93.7478 14.16C94.6118 14.16 95.3664 14.3307 96.0118 14.672C96.6624 15.008 97.1691 15.48 97.5318 16.088C97.8944 16.696 98.0758 17.4027 98.0758 18.208C98.0758 18.96 97.8864 19.64 97.5078 20.248C97.1344 20.8507 96.6144 21.328 95.9478 21.68C95.2864 22.032 94.5184 22.208 93.6438 22.208C92.7851 22.208 92.0304 22.0373 91.3798 21.696C90.7344 21.3493 90.2304 20.872 89.8678 20.264C89.5051 19.656 89.3238 18.9547 89.3238 18.16C89.3238 17.392 89.5104 16.7067 89.8838 16.104C90.2624 15.5013 90.7824 15.0267 91.4438 14.68C92.1104 14.3333 92.8784 14.16 93.7478 14.16ZM94.3238 21.232C94.6064 21.1787 94.8278 21.024 94.9878 20.768C95.1531 20.512 95.2464 20.1493 95.2678 19.68C95.2944 19.2053 95.2411 18.624 95.1078 17.936C94.9744 17.2587 94.8064 16.704 94.6038 16.272C94.4011 15.8347 94.1691 15.5227 93.9078 15.336C93.6518 15.144 93.3744 15.0773 93.0758 15.136C92.7931 15.1893 92.5691 15.344 92.4038 15.6C92.2384 15.856 92.1451 16.2187 92.1238 16.688C92.1024 17.1573 92.1584 17.7387 92.2918 18.432C92.4251 19.104 92.5931 19.6587 92.7958 20.096C92.9984 20.5333 93.2278 20.8453 93.4838 21.032C93.7451 21.2187 94.0251 21.2853 94.3238 21.232ZM102.555 14.776V15.584L102.674 15.832V24.272C102.674 24.4587 102.693 24.592 102.731 24.672C102.773 24.7573 102.837 24.816 102.923 24.848L103.227 24.928C103.339 24.9707 103.419 25.024 103.467 25.088C103.515 25.1573 103.539 25.2373 103.539 25.328C103.539 25.456 103.499 25.5547 103.419 25.624C103.339 25.6933 103.208 25.728 103.027 25.728H99.5625C99.3865 25.728 99.2585 25.6933 99.1785 25.624C99.0985 25.5547 99.0585 25.456 99.0585 25.328C99.0585 25.2373 99.0825 25.1573 99.1305 25.088C99.1785 25.024 99.2585 24.9707 99.3705 24.928L99.6185 24.848C99.7038 24.816 99.7652 24.7573 99.8025 24.672C99.8452 24.592 99.8665 24.4587 99.8665 24.272V16.328C99.8665 16.1787 99.8452 16.072 99.8025 16.008C99.7598 15.944 99.6932 15.9013 99.6025 15.88L99.2985 15.84C99.1972 15.808 99.1225 15.7653 99.0745 15.712C99.0318 15.6533 99.0105 15.5787 99.0105 15.488C99.0105 15.3813 99.0398 15.3013 99.0985 15.248C99.1572 15.1893 99.2692 15.1253 99.4345 15.056L100.971 14.432C101.195 14.336 101.379 14.2693 101.523 14.232C101.667 14.1947 101.797 14.176 101.915 14.176C102.128 14.176 102.288 14.232 102.395 14.344C102.501 14.456 102.555 14.6 102.555 14.776ZM102.155 16.872L101.699 16.376C102.141 15.6827 102.64 15.1413 103.195 14.752C103.749 14.3573 104.373 14.16 105.067 14.16C105.701 14.16 106.267 14.3227 106.763 14.648C107.259 14.968 107.651 15.4133 107.939 15.984C108.227 16.5493 108.371 17.2053 108.371 17.952C108.371 18.8107 108.197 19.56 107.851 20.2C107.504 20.8347 107.032 21.328 106.435 21.68C105.837 22.032 105.165 22.208 104.419 22.208C103.784 22.208 103.224 22.0667 102.739 21.784C102.259 21.5013 101.853 21.08 101.523 20.52L102.219 20.008C102.469 20.3973 102.728 20.6827 102.995 20.864C103.267 21.0453 103.563 21.136 103.883 21.136C104.187 21.136 104.459 21.0373 104.699 20.84C104.939 20.6373 105.125 20.3227 105.259 19.896C105.392 19.4693 105.459 18.9173 105.459 18.24C105.459 17.6107 105.392 17.0987 105.259 16.704C105.125 16.304 104.941 16.0107 104.707 15.824C104.477 15.632 104.211 15.536 103.907 15.536C103.571 15.536 103.256 15.6427 102.963 15.856C102.675 16.0693 102.405 16.408 102.155 16.872ZM117.084 17.224C117.084 17.544 116.993 17.792 116.812 17.968C116.636 18.144 116.38 18.232 116.044 18.232H111.172V17.52H113.876C114.153 17.52 114.292 17.392 114.292 17.136C114.292 16.4373 114.188 15.9253 113.98 15.6C113.777 15.2693 113.505 15.104 113.164 15.104C112.902 15.104 112.67 15.1893 112.468 15.36C112.27 15.5307 112.113 15.784 111.996 16.12C111.878 16.4507 111.82 16.8587 111.82 17.344C111.82 18.352 112.049 19.0987 112.508 19.584C112.972 20.064 113.593 20.304 114.372 20.304C114.788 20.304 115.158 20.2347 115.484 20.096C115.809 19.9573 116.086 19.7387 116.316 19.44C116.438 19.3227 116.532 19.2427 116.596 19.2C116.665 19.1573 116.732 19.136 116.796 19.136C116.886 19.136 116.953 19.1813 116.996 19.272C117.044 19.3573 117.068 19.464 117.068 19.592C117.052 20.0613 116.889 20.496 116.58 20.896C116.27 21.2907 115.846 21.608 115.308 21.848C114.769 22.088 114.145 22.208 113.436 22.208C112.646 22.208 111.94 22.048 111.316 21.728C110.697 21.408 110.209 20.9627 109.852 20.392C109.494 19.816 109.316 19.144 109.316 18.376C109.316 17.5387 109.481 16.8053 109.812 16.176C110.148 15.5413 110.63 15.048 111.26 14.696C111.894 14.3387 112.654 14.16 113.54 14.16C114.302 14.16 114.948 14.2907 115.476 14.552C116.004 14.8133 116.404 15.176 116.676 15.64C116.948 16.0987 117.084 16.6267 117.084 17.224ZM121.427 17.696C121.427 16.9067 121.533 16.2507 121.747 15.728C121.965 15.2 122.253 14.808 122.611 14.552C122.968 14.2907 123.352 14.16 123.763 14.16C124.296 14.16 124.707 14.3173 124.995 14.632C125.283 14.9413 125.427 15.4 125.427 16.008C125.427 16.5947 125.307 17.0293 125.067 17.312C124.832 17.5947 124.523 17.736 124.139 17.736C123.755 17.736 123.464 17.6347 123.267 17.432C123.075 17.2293 122.979 16.9493 122.979 16.592V16.28C122.973 16.1307 122.939 16.0187 122.875 15.944C122.811 15.864 122.707 15.824 122.562 15.824C122.413 15.824 122.275 15.8853 122.147 16.008C122.019 16.1307 121.915 16.3253 121.835 16.592C121.76 16.8533 121.723 17.1947 121.723 17.616L121.427 17.696ZM121.555 14.784L121.723 16.544V20.544C121.723 20.7093 121.749 20.8293 121.803 20.904C121.861 20.9787 121.979 21.032 122.155 21.064L122.803 21.176C122.941 21.2027 123.043 21.2507 123.107 21.32C123.176 21.384 123.211 21.4773 123.211 21.6C123.211 21.7227 123.165 21.8213 123.075 21.896C122.989 21.9653 122.861 22 122.691 22H118.611C118.435 22 118.307 21.9653 118.227 21.896C118.147 21.8213 118.107 21.7227 118.107 21.6C118.107 21.5093 118.131 21.432 118.179 21.368C118.227 21.2987 118.307 21.2427 118.419 21.2L118.667 21.12C118.752 21.088 118.813 21.032 118.851 20.952C118.893 20.8667 118.915 20.7307 118.915 20.544V16.352C118.915 16.2027 118.893 16.096 118.851 16.032C118.808 15.968 118.741 15.9253 118.651 15.904L118.347 15.856C118.245 15.8293 118.171 15.7893 118.123 15.736C118.08 15.6773 118.059 15.6027 118.059 15.512C118.059 15.4053 118.088 15.32 118.147 15.256C118.211 15.192 118.323 15.1307 118.483 15.072L120.099 14.472C120.413 14.3493 120.64 14.2693 120.779 14.232C120.917 14.1947 121.027 14.176 121.107 14.176C121.24 14.176 121.339 14.224 121.403 14.32C121.472 14.4107 121.523 14.5653 121.555 14.784ZM129.633 15.008C129.291 15.008 129.03 15.088 128.849 15.248C128.667 15.408 128.577 15.6053 128.577 15.84C128.577 15.984 128.606 16.1173 128.665 16.24C128.729 16.3627 128.854 16.4747 129.041 16.576C129.233 16.672 129.518 16.76 129.897 16.84C130.798 17.0107 131.489 17.2293 131.969 17.496C132.449 17.7573 132.779 18.0667 132.961 18.424C133.142 18.776 133.233 19.1733 133.233 19.616C133.233 20.416 132.95 21.048 132.385 21.512C131.825 21.976 131.003 22.208 129.921 22.208C129.542 22.208 129.235 22.176 129.001 22.112C128.771 22.0533 128.585 21.9947 128.441 21.936C128.297 21.872 128.169 21.84 128.057 21.84C127.934 21.84 127.833 21.872 127.753 21.936C127.673 21.9947 127.593 22.0533 127.513 22.112C127.438 22.176 127.342 22.208 127.225 22.208C127.118 22.208 127.035 22.176 126.977 22.112C126.918 22.048 126.865 21.9333 126.817 21.768L126.345 20.232C126.275 20.0027 126.254 19.8187 126.281 19.68C126.313 19.5413 126.398 19.4453 126.537 19.392C126.681 19.3387 126.806 19.3387 126.913 19.392C127.019 19.44 127.121 19.5387 127.217 19.688C127.462 20.0773 127.718 20.3973 127.985 20.648C128.257 20.8933 128.539 21.0747 128.833 21.192C129.131 21.304 129.438 21.36 129.753 21.36C130.158 21.36 130.462 21.28 130.665 21.12C130.867 20.9547 130.969 20.7387 130.969 20.472C130.969 20.3067 130.926 20.1627 130.841 20.04C130.755 19.912 130.593 19.7947 130.353 19.688C130.113 19.5813 129.755 19.48 129.281 19.384C128.555 19.24 127.977 19.0453 127.545 18.8C127.113 18.5493 126.803 18.2453 126.617 17.888C126.435 17.5307 126.345 17.1147 126.345 16.64C126.345 16.1387 126.475 15.704 126.737 15.336C126.998 14.9627 127.361 14.6747 127.825 14.472C128.289 14.264 128.819 14.16 129.417 14.16C129.806 14.16 130.115 14.192 130.345 14.256C130.579 14.32 130.769 14.3867 130.913 14.456C131.062 14.52 131.201 14.552 131.329 14.552C131.462 14.552 131.571 14.52 131.657 14.456C131.747 14.3867 131.835 14.32 131.921 14.256C132.006 14.192 132.105 14.16 132.217 14.16C132.318 14.16 132.401 14.1947 132.465 14.264C132.534 14.3333 132.582 14.4533 132.609 14.624L132.929 16.088C132.971 16.3173 132.977 16.4933 132.945 16.616C132.918 16.7387 132.838 16.8267 132.705 16.88C132.566 16.9387 132.443 16.936 132.337 16.872C132.23 16.808 132.121 16.6933 132.009 16.528C131.657 15.968 131.273 15.576 130.857 15.352C130.446 15.1227 130.038 15.008 129.633 15.008Z" fill="black"/>
<rect width="37" height="32" rx="4" fill="black"/>
<rect width="37" height="32" rx="4" fill="black"/>
<path d="M20.192 18.708L18.788 19.044L22.784 8.496C22.968 8.008 23.18 7.672 23.42 7.488C23.668 7.296 24.008 7.2 24.44 7.2H28.544C28.824 7.2 29.032 7.256 29.168 7.368C29.304 7.48 29.372 7.64 29.372 7.848C29.372 8.016 29.328 8.16 29.24 8.28C29.152 8.4 29.02 8.488 28.844 8.544L28.292 8.712C28.036 8.792 27.86 8.9 27.764 9.036C27.676 9.172 27.644 9.388 27.668 9.684L28.52 21.624C28.536 21.904 28.588 22.104 28.676 22.224C28.764 22.336 28.916 22.424 29.132 22.488L29.684 22.656C29.852 22.712 29.976 22.796 30.056 22.908C30.136 23.02 30.176 23.156 30.176 23.316C30.176 23.516 30.108 23.68 29.972 23.808C29.836 23.936 29.628 24 29.348 24H23.06C22.772 24 22.56 23.944 22.424 23.832C22.288 23.712 22.22 23.552 22.22 23.352C22.22 23.192 22.26 23.052 22.34 22.932C22.42 22.812 22.56 22.72 22.76 22.656L23.324 22.488C23.58 22.408 23.752 22.308 23.84 22.188C23.928 22.06 23.964 21.872 23.948 21.624L23 9.264L24.272 9.144L19.316 22.332C19.148 22.804 18.968 23.108 18.776 23.244C18.592 23.372 18.376 23.436 18.128 23.436C17.944 23.436 17.776 23.416 17.624 23.376C17.472 23.328 17.328 23.22 17.192 23.052C17.064 22.884 16.928 22.624 16.784 22.272L11.708 9.552L12.932 9.216L11.948 21.192C11.916 21.552 11.996 21.832 12.188 22.032C12.38 22.224 12.632 22.396 12.944 22.548L13.412 22.728C13.54 22.792 13.64 22.872 13.712 22.968C13.784 23.056 13.82 23.176 13.82 23.328C13.82 23.528 13.752 23.692 13.616 23.82C13.48 23.94 13.272 24 12.992 24H9.26C8.98 24 8.772 23.944 8.636 23.832C8.5 23.712 8.432 23.552 8.432 23.352C8.432 23.16 8.488 23.012 8.6 22.908C8.712 22.804 8.856 22.712 9.032 22.632L9.404 22.488C9.676 22.384 9.9 22.232 10.076 22.032C10.26 21.824 10.368 21.54 10.4 21.18L11.312 10.128C11.344 9.688 11.312 9.364 11.216 9.156C11.12 8.94 10.94 8.792 10.676 8.712L10.148 8.556C9.956 8.492 9.812 8.404 9.716 8.292C9.628 8.172 9.584 8.024 9.584 7.848C9.584 7.416 9.864 7.2 10.424 7.2H14.504C14.904 7.2 15.224 7.284 15.464 7.452C15.704 7.612 15.92 7.944 16.112 8.448L20.192 18.708Z" fill="white"/>
</svg>
